<svg width="70" height="70" viewBox="0 0 70 70" fill="none" xmlns="http://www.w3.org/2000/svg">
<path fill-rule="evenodd" clip-rule="evenodd" d="M34.6 68.8C53.4 68.8 68.8 53.4 68.8 34.6C68.8 15.8 53.4 0.400024 34.6 0.400024C15.7 0.400024 0.400024 15.8 0.400024 34.6C0.400024 53.5 15.7 68.8 34.6 68.8Z" fill="white"/>
<path d="M34.6 69.2C15.5 69.2 0 53.7 0 34.6C0 15.5 15.5 0 34.6 0C53.7 0 69.2 15.5 69.2 34.6C69.1 53.7 53.6 69.2 34.6 69.2ZM34.6 0.8C15.9 0.8 0.8 16 0.8 34.6C0.8 53.3 16 68.4 34.6 68.4C53.2 68.5 68.4 53.3 68.4 34.6C68.4 16 53.2 0.8 34.6 0.8Z" fill="#134B88"/>
<path fill-rule="evenodd" clip-rule="evenodd" d="M34.6 2C52.6 2 67.2 16.6 67.2 34.6C67.2 52.6 52.5 67.2 34.6 67.2C16.7 67.2 2.00002 52.5 2.00002 34.6C1.90002 16.7 16.6 2 34.6 2ZM34.6 8C20 8 8.00002 20 8.00002 34.6C8.00002 49.3 20 61.2 34.6 61.2C49.3 61.2 61.2 49.2 61.2 34.6C61.2 20 49.2 8 34.6 8Z" fill="#134B88"/>
<path fill-rule="evenodd" clip-rule="evenodd" d="M34.6001 59.6001C48.4001 59.6001 59.6001 48.4001 59.6001 34.6001C59.6001 20.8001 48.4001 9.6001 34.6001 9.6001C20.9001 9.6001 9.6001 20.8001 9.6001 34.6001C9.6001 48.4001 20.8001 59.6001 34.6001 59.6001Z" fill="#BBBDBD"/>
<path d="M34.6 60C20.6 60 9.30005 48.6001 9.30005 34.6C9.30005 20.6 20.7001 9.30005 34.6 9.30005C48.6001 9.30005 60 20.7001 60 34.6C59.9 48.6001 48.5 60 34.6 60ZM34.6 10C21 10 10 21 10 34.6C10 48.2001 21 59.2001 34.6 59.2001C48.2001 59.2001 59.2001 48.2001 59.2001 34.6C59.2001 21.1 48.1001 10 34.6 10Z" fill="#134B88"/>
<path fill-rule="evenodd" clip-rule="evenodd" d="M34.6 58.6C47.8 58.6 58.6 47.8 58.6 34.6C58.6 21.4 47.8 10.6 34.6 10.6C21.4 10.6 10.7 21.4 10.7 34.6C10.6 47.8 21.4 58.6 34.6 58.6Z" fill="white"/>
<path fill-rule="evenodd" clip-rule="evenodd" d="M28.8 54.8V52.8H28.3V52L29.8 51.8V54.8H28.8ZM31.2 51.9001H31.3H31.4H31.5H32.6H32.7H32.8001H32.9H33H33.1L33.2 52H33.3001H33.4L33.5 52.1001L33.6 52.2001V52.3V52.4001V52.5V52.6001V52.7001V52.8V53.1001V53.3V53.5V53.7001L33.5 53.9001L33.4 54.1001L33.3001 54.3L33.2 54.4001L33.1 54.5L33 54.6001H32.9H32.8001L32.7 54.7001H32.6H32.5H32.4H32.3001H32.2H32.1H32H31.9H31.8001H31.7H31.6H31.5H31.4L30.6 53.8H31.3H31.5H31.7H31.8001H31.9H31.8001H31.6H31.4H31.3H31.2H31.1H31H30.9H30.8L30.7 53.7001V53.6001L30.6 53.5L30.5 53.4001V53.3V53.2001V53.1001V53V52.7001V52.6001V52.5V52.4001L30.6 52.3V52.2001V52.1001H30.7L30.8 52H30.9H31H31.1L31.2 51.9001ZM32.3001 53H32.5V52.9001V52.8H32.4H32.3001H31.6H31.5H31.4V52.9001H31.5H31.6H31.7H31.8001H31.9H32H32.1H32.2L32.3001 53ZM34.6 54.9001L35.9 52.9001H35V53.5L34 53.3V52H37.2V52.7001L35.8001 55H34.6V54.9001ZM38.4 51.9001H38.5H38.6H38.7H39.7H39.8001H39.9H40H40.1H40.2L40.3001 52H40.4H40.5L40.6 52.1001L40.7 52.2001V52.3V52.4001V52.5V52.6001V52.7001V52.8V53.1001V53.3V53.5L40.6 53.7001V53.9001L40.5 54L40.4 54.2001V54.3L40.3001 54.4001L40.2 54.5H40.1H40L39.9 54.7001H39.8001H39.7H39.6H39.5H39.4H39.3001H39.2H39.1H39H38.9H38.8001H38.7H38.6L37.9 53.8H38.4H38.6H38.8001H39H39.1H39H38.8001H38.7H38.5H38.4H38.3001H38.2H38.1H38L37.9 53.7001H37.8001L37.7 53.6001L37.6 53.5L37.5 53.4001V53.3V53.2001V53.1001V52.7001V52.6001V52.5L37.6 52.4001V52.3L37.7 52.2001L37.8001 52.1001H37.9L38 52H38.1H38.2H38.3001L38.4 51.9001ZM39.6 53H39.7H39.8001V52.9001V52.8H39.7H39.6H38.9H38.8001H38.7V52.9001H38.8001H38.9H39H39.1H39.2H39.3001H39.4H39.5H39.6H39.7L39.6 53Z" fill="#E0E0DF"/>
<path fill-rule="evenodd" clip-rule="evenodd" d="M29 54.7V52.7H28.5V52.2L29.7 52V54.7H29ZM32.3 53.8H32.1H32H31.9H31.8H31.7H31.6H31.5H31.3H31.2H31.1H31H30.9V53.7H30.8L30.7 53.6L30.6 53.5L30.5 53.4V53.3V53.2V53.1V53V52.7V52.6V52.5V52.4V52.3L30.6 52.2V52.1H30.7H30.8H30.9H31H31.1H31.2H31.4H31.5H32.5H32.6H32.7H32.8H32.9H33H33.1H33.2V52.2H33.3V52.3V52.4V52.5V52.6V52.7V52.8V52.9V53.2V53.4V53.6L33.4 53.7L33.3 53.8L33.2 53.9L33.1 54L33 54.1L32.9 54.2L32.8 54.3L32.7 54.4H32.6H32.5H32.4H32.3H32.2H32.1H32H31.9H31.8H31.7H31.6H31.5H31.4H31.3H31.2H31.1L30.6 53.8H30.9H31.4H31.6H31.8H32H32.1H32.2H32.3H32.4H32.5L32.6 53.7L32.7 53.6H32.8V53.5L32.9 53.4H32.8H32.7H32.6H32.3V53.8ZM32.7 52.8L32.6 52.7H32.5H32.4H32.3H31.6H31.5H31.4V52.8H31.5H31.6H31.7H31.8H31.9H32H32.1H32.2H32.3H32.4H32.5H32.6H32.7H32.8H32.9V52.7V52.6V52.5L32.7 52.8ZM34.9 54.7L36.2 52.6H34.8V53.1L34.1 53V52H36.9V52.5L35.8 54.7H34.9ZM39.5 53.8H39.4H39.3H39.2H39.1H39H38.9H38.8H38.6H38.5H38.4V53.7H38.3H38.2H38.1H38H37.9L37.8 53.6V53.5V53.4V53.3V53.2V53.1V53V52.7V52.6V52.5V52.4V52.3V52.2V52.1L37.9 52H38H38.1H38.2H38.3H38.4H38.5H38.6H38.7H39.7H39.8H39.9H40H40.1H40.2H40.3L40.4 52.1H40.5V52.2V52.3L40.6 52.4V52.5V52.6V52.7V52.8V53.1V53.3V53.5V53.7L40.5 53.8L40.4 53.9V54.1L40.3 54.2L40.2 54.3L40.1 54.4L40 54.5H39.9H39.8H39.7H39.6H39.5H39.4H39.3L39.4 54.7H39.3H39.2H39.1H39H38.9H38.8L38.3 54.1H38.4H38.6H38.8H39H39.1H39.2H39.3H39.4H39.5H39.6V54L39.7 53.9H39.8L39.9 53.8L40 53.7H39.9H39.8H39.7H39.6H39.5V53.8ZM39.9 52.8V52.7H39.8H39.7H39.6H39.5H38.8H38.7H38.6H38.5V52.8H38.6H38.7H38.8H38.9H39H39.1H39.2H39.3H39.4H39.5H39.6H39.4H39.5H39.6H39.7H39.8H39.9H40H40.1V52.7V52.6V52.5L39.9 52.8Z" fill="#134B88"/>
<path fill-rule="evenodd" clip-rule="evenodd" d="M15.3 38L21.7 49.2L15.3 38Z" fill="#111517"/>
<path fill-rule="evenodd" clip-rule="evenodd" d="M38.4 34.7L40.6 38.5L42.8 34.7H38.4ZM42.9 34.6L44.5 31.9H36.8L38.4 34.6H42.9ZM35.2 29.1L36.8 31.8H44.6L46.2 29.1H35.2ZM47.7 26.3H33.6L35.2 29H46.2L47.7 26.3ZM46.2 23.5H23L21.4 26.2H47.8L46.2 23.5ZM23 23.4H46.1L44.5 20.7H24.5L23 23.4ZM42.9 17.8H26.2L24.6 20.5H44.5L42.9 17.8ZM26.2 17.8H42.8L41.2 15.1H27.8L26.2 17.8Z" fill="#E6E6E5"/>
<path fill-rule="evenodd" clip-rule="evenodd" d="M40.6 37.4H40H29.1L35.5 26.3H21.3L14.6 38L21.4 49.8H47.8L54.5 38L47.8 26.3H47.1L40.6 37.4Z" fill="#E6E6E5"/>
<path fill-rule="evenodd" clip-rule="evenodd" d="M39.4 35.3H41.9L40.7 37.4L39.4 35.3ZM42.6 34H38.7L37.8 32.4H43.5L42.6 34ZM36.1 29.7H45.1L44.2 31.3H37.1L36.1 29.7ZM46.7 26.8L45.8 28.4H35.5L34.6 26.8H46.7ZM45.8 24H23.3L22.4 25.6H46.8L45.8 24ZM24 22.8H45.1L44.2 21.2H24.9L24 22.8ZM42.6 18.4H26.5L25.6 20H43.5L42.6 18.4ZM27.2 17.2H41.8L40.9 15.6H28.1L27.2 17.2Z" fill="#134B88"/>
<path fill-rule="evenodd" clip-rule="evenodd" d="M47.5 26.8H47.4L41 38H28.1L34.5 26.8H21.7L15.3 38L21.7 49.2H47.4L53.9 38L47.5 26.8Z" fill="#FDB71E"/>
<path fill-rule="evenodd" clip-rule="evenodd" d="M12.9 52.7999L11.3 54.2L12.3 55.4L13.9 54L14.4 54.6L12.8 56L12.7 56.1H12.6L12.5 56.2H12.4H12.3H12.2L12.1 56.1L12 56L11.9 55.9V55.7999L10.7 54.7L10.6 54.6L10.5 54.5V54.4V54.2999L10.4 54.2V54.1V54L10.5 53.9L10.6 53.7999L10.7 53.7L12.3 52.2999L12.9 52.7999ZM5.69998 44L5.89998 44.6V44.7V44.7999L5.99998 44.9L6.09998 45V45.1L6.19998 45.2L6.29998 45.2999L6.39998 45.4H6.49998H6.59998H6.69998H6.79998H6.89998H6.99998H7.09998H7.19998L7.29998 45.2999L7.39998 45.2V45V44.9V44.7999V44.7V44.6V44.5V44.4L7.09998 43.5L5.69998 44ZM4.69998 43.5L7.39998 42.5L7.99998 44.2V44.2999V44.4V44.5V44.6V44.7V44.7999V44.9V45V45.1V45.2V45.2999V45.4V45.5V45.6V45.7L7.89998 45.7999L7.79998 45.9L7.69998 46L7.59998 46.1L7.49998 46.2L7.39998 46.1L7.29998 46.2H7.19998H7.09998H6.99998H6.89998H6.79998H6.69998H6.59998H6.49998H6.39998H6.29998H6.19998H6.09998H5.99998H5.89998L5.79998 46.1L5.69998 46L5.59998 45.9L5.49998 45.7999L5.59998 45.7V45.6L5.49998 45.5V45.4L5.39998 45.2999V45.2L5.29998 45.1V45L4.69998 43.5ZM7.89998 46L8.09998 45.9H8.19998H8.29998H8.39998H8.49998H8.59998L8.69998 46L8.79998 46.1L8.89998 46.2L8.99998 46.2999L9.89998 48V48.1V48.2V48.2999V48.4V48.5V48.7L9.79998 48.7999L9.69998 48.9H9.59998L9.49998 49H9.39998L8.19998 49.6L8.09998 49.7H7.99998H7.89998H7.79998H7.69998L7.59998 49.6H7.49998L7.39998 49.7L7.29998 49.6L7.19998 49.5L7.09998 49.4L6.29998 47.7V47.6L6.19998 47.5V47.4V47.2999V47.2V47.1V47V46.9V46.7999L6.39998 46.9V46.7999L6.59998 46.7L7.89998 46ZM6.99998 47.4L7.79998 49L9.09998 48.2999L8.29998 46.7L6.99998 47.4ZM11.6 49.1L11.9 49.5L11.8 49.6L11.7 49.7V49.7999V49.9V50L11.8 50.1V50.2L11.9 50.2999H12H12.1H12.2L12.3 50.2L12.6 50.6L12.4 50.7H12.3H12.2H12.1H12H11.9H11.8H11.7H11.6H11.5H11.6L11.5 50.6L11.4 50.5V50.4V50.2999V50.2L11.3 50.1V50V49.9V49.7999V49.7V49.6V49.5V49.7L11.4 49.6L11.5 49.5V49.4L11.6 49.2999V49.1ZM11.1 51.5L10.1 50.1L8.89998 50.9L9.79998 52.2999L10.1 52.1L9.59998 51.2999L10.1 50.9L11.1 52.4L10.3 53L10.2 53.1H10.1L9.99998 53.2H9.89998H9.79998H9.69998H9.59998L9.49998 53.1L9.39998 53V52.9V52.7999L8.39998 51.2999L8.29998 51.2L8.19998 51.1V51V50.9V50.7999V50.7V50.6L8.29998 50.5L8.39998 50.4V50.2999H8.49998L9.69998 49.5L9.79998 49.4H9.89998L9.99998 49.2999H10.1H10.2H10.3H10.4L10.5 49.4L10.6 49.5L10.7 49.6V49.7L11.7 51.2V51.2999V51.4L11.8 51.5V51.6V51.7V51.7999L11.7 51.9L11.6 52H11.5L11.4 52.1V52.2999L10.8 51.7L11.1 51.5ZM16.1 58.1L16.7 58.6L16.8 57.7999L16.1 58.1ZM14.1 58.1L17.1 56.7999L17.7 57.2L17.3 60.5L16.6 59.9L16.7 59.2999L15.5 58.4L14.8 58.7L14.1 58.1ZM17.5 60.6L19 58.2L19.7 58.6L19.2 59.5L20.8 59.2999L21.9 59.9L19.6 60.1L20.6 62.5L19.4 61.7999L18.7 60.1L18.1 61L17.5 60.6ZM21.8 62.2999L22.4 62.6H22.5H22.6L22.7 62.7L22.8 62.7999H22.9H23H23.1H23.2H23.3H23.4L23.5 62.7L23.6 62.6V62.5L23.7 62.4L23.8 62.2999V62.2V62.1V62V61.9V61.7999V61.7V61.6L23.7 61.5L23.6 61.4H23.5H23.4L23.3 61.2999L22.4 60.9L21.8 62.2999ZM20.8 62.6L21.9 60L23.6 60.7H23.7L23.8 60.7999H23.9L24 60.9H24.1L24.2 61L24.3 61.1L24.4 61.2V61.2999L24.5 61.4V61.5L24.6 61.6V61.7V61.7999V61.9V62V62.1V62.2V62.2999V62.4V62.5V62.6V62.7H24.4V62.7999V62.9L24.3 63V63.1H24.2L24.1 63.2L24 63.2999H23.9L23.8 63.4H23.7L23.6 63.5H23.5H23.4H23.3H23.4H23.3H23.2H23.1H23H22.9H22.8H22.7H22.6L22.5 63.4H22.4H22.3L20.8 62.6ZM24.3 64L25 61.2999L27.8 62.1L27.7 62.7L25.7 62.2L25.6 62.6L26.8 62.9L26.6 63.5L25.4 63.1L25.3 63.5L27.3 64.1L27.1 64.7999L24.3 64ZM28.8 63.5L28.4 65.1L27.7 64.8999L28.3 62.1L28.8 62.2L30.3 64.1L30.4 64.2L30.5 64.1L30.8 62.6L31.5 62.7999L30.9 65.6L30.4 65.5L28.8 63.5ZM32 62.6L32.1 61.7999L32.8 61.9V62.7L32 62.6ZM31.7 65.6L32 62.7999L32.8 62.9L32.5 65.7L31.7 65.6ZM32.8 65.7V65.2999L34.5 63.6H33V62.9H35.9V63.2999L34.2 65H35.9V65.7H32.8ZM39.5 62.2L38.8 62.4L38.6 61.6L39.3 61.5L39.5 62.2ZM40.3 62L39.6 62.1L39.4 61.4L40.1 61.2L40.3 62ZM40.3 62.2L41.1 62L41.5 64.1V64.2V64.2999V64.3999V64.5V64.6V64.7L41.4 64.7999V64.8999H41.3L41.2 65H41.1H41H40.9L39.3 65.2999H39.2H39.1H39H38.9H38.8H38.7H38.6L38.5 65.2L38.4 65.1V65V64.8999V64.7999V64.7L38 62.7L38.8 62.5L39.2 64.6L40.7 64.2999L40.3 62.2ZM44.5 62.7L44 61.2L44.7 61L45.5 63.7L45 63.8999L42.6 62.9V63L43.1 64.5L42.4 64.7999L41.6 62.1L42.1 61.9L44.4 62.7999L44.5 62.7ZM46.2 63.5L45.1 60.9L45.8 60.6L45.9 60.7L46.5 60.4L48.2 61.5V59.5L48.8 59.2L51.2 57.6L51.6 58.1L49.9 59.2999L50.1 59.6L51.1 58.9L51.5 59.5L50.5 60.2L50.8 60.6L52.5 59.4L52.9 60L50.5 61.6L49 59.4L48.9 62.4L48.4 62.7L45.9 61.1L46.8 63.4L46.2 63.5ZM45.1 60.7L44.8 60L45.5 59.7L45.8 60.4L45.1 60.7ZM53.5 56.4L52.5 57.2L52.8 57.6L53.8 56.7999L53.9 56.7V56.6L53.7 56.2999H53.6L53.5 56.4ZM53.3 59.4L51.5 57.2L53.3 55.7L53.4 55.6H53.5L53.6 55.5H53.7H53.8H53.9L54 55.6L54.1 55.7L54.6 56.2L54.7 56.2999V56.4V56.5V56.6V56.7V56.7999L54.6 56.9L54.5 57L54.4 57.1V57.2H56L55.1 58L53.7 57.9L53.4 58.2L54 59L53.3 59.4ZM56 53.9L55 55L55.3 55.2999L56.4 54.1V54L56.5 53.9L56.6 53.7999L56.7 53.7H56.8H56.9H57H57.1L57.2 53.7999L57.3 53.9L57.6 54.2L57.7 54.2999L57.8 54.4L57.9 54.5L58 54.6V54.7V54.7999L57.9 54.9V55L57.8 55.1V55.2L56.7 56.4V56.5L56.4 56.7H56.3L56.2 56.7999H56.1H56H55.9L55.8 56.7H55.6L55.5 56.6L55.4 56.5L55.8 55.7999L56 56L57.1 54.7999L56.8 54.5L55.8 55.6L55.7 55.7H55.6L55.5 55.7999L55.4 55.9H55.3H55.2H55.1H55L54.9 55.7999L54.8 55.7H54.7L54.5 55.5H54.4L54.3 55.4V55.2999V55.2V55.1V55V54.9L54.4 54.7L54.5 54.6L54.6 54.5L55.6 53.4L55.7 53.2999L55.8 53.2L55.9 53.1H56H56.1H56.2H56.3L56.4 53.2L56.5 53.2999L56.6 53.4L56.2 54.1L56 53.9ZM56.2 52.4L55.6 51.9L56.1 51.2999L56.7 51.7999L56.2 52.4ZM58.5 54.2999L56.3 52.5L56.8 51.9L59 53.7L58.5 54.2999ZM58.7 50.5L60.5 51.7L60 52.4L58.2 51.2L57.5 52.2L56.9 51.7999L58.7 49.1L59.3 49.5L58.7 50.5ZM61.3 50.4L58.8 49L60.2 46.5L60.8 46.7999L59.8 48.6L60.1 48.7999L60.7 47.7999L61.3 48.1L60.7 49.2L61.1 49.4L62.1 47.5L62.7 47.7999L61.3 50.4ZM61.7 44.7L61.1 46.1L61.4 46.2999L62 44.9L62.1 44.7999V44.7L62.2 44.6L62.3 44.5L62.4 44.4H62.5L62.6 44.2999H62.7H62.8H62.9H63H63.1H63.2L63.5 44.4L63.6 44.5H63.7L63.8 44.6L63.9 44.7L64 44.7999L64.1 44.9V45V45.1V45.2V45.2999V45.4V45.5L64 45.6L63.4 47.1V47.2V47.2999L63.3 47.4L63.2 47.5L63.1 47.6L63 47.7H62.9H62.8H62.7H62.6H62.5H62.4L62.3 47.6L62.4 46.9V46.7L63 45.2L62.6 45L62 46.4L61.9 46.5V46.6L62 46.7L61.9 46.7999L61.8 46.9H61.7H61.6H61.4H61.3H61.2L61.1 46.7999L60.8 46.7H60.7H60.6L60.5 46.6H60.4L60.3 46.5L60.4 46.4V46.2999V46.2V46.1V46V45.9V45.7999V45.7L61 44.2999V44.2L61.1 44.1V44L61.2 43.9L61.3 43.7999L61.4 43.7H61.5H61.6H61.7H61.8L62 43.7999H62.1L62 44.6L61.7 44.7ZM64.2 44.2L61.5 43.4L61.7 42.6L64.4 43.4L64.2 44.2ZM61.3 43.2999L60.5 43.1L60.7 42.4L61.5 42.6L61.3 43.2999ZM5.69998 40.2H5.79998L5.89998 40.2999L5.99998 40.4L6.09998 40.5L6.19998 40.6L6.29998 40.7H6.39998V40.7999V40.9V41L6.29998 41.1L6.19998 41.2L6.09998 41.2999L5.99998 41.4H5.89998H5.79998H5.69998H5.59998L5.49998 41.2999L5.39998 41.2L5.29998 41.1L5.19998 41V40.9V40.7999V40.7V40.6L5.29998 40.5L5.39998 40.4L5.49998 40.2999L5.59998 40.2L5.69998 40.1V40.2ZM63.3 40.2H63.4L63.5 40.2999L63.6 40.4L63.7 40.5L63.8 40.6L63.9 40.7V40.7999V40.9V41V41.1L63.8 41.2L63.7 41.2999L63.6 41.4L63.5 41.5H63.4H63.3H63.2H63.1L63 41.4L62.9 41.2999L62.8 41.2L62.7 41.1V41V40.9V40.7V40.6L62.8 40.5L62.9 40.4L63 40.2999L63.1 40.2L63.2 40.1H63.3V40.2ZM62.7 34.7999V34H64.9V32.7999L62.7 32.9V32.1L65.5 31.9V32.7L65.6 35.4V35.7V36L65.5 36.5L64.5 37.2999L65.4 38.2L65.3 39.2L63.8 37.6L62.5 37.5L62.6 36.7L63.8 36.7999L64.8 36V34.7999H62.7ZM45.2 8.49995L42.4 7.59995L43.3 4.89995L46.1 5.79995L45.9 6.39995L43.9 5.69995L43.8 6.09995L45 6.49995L44.8 7.09995L43.7 6.69995L43.4 7.19995L45.4 7.89995V8.09995L47.7 6.59995L48.3 6.89995L48.5 9.89995L50 7.59995L50.4 7.89995L51.1 10.3V10.4L51.2 10.3L52 8.99995L52.6 9.39995L51.1 11.8L50.6 11.5L49.8 8.99995L49.7 9.09995L48.9 10.4L48.4 9.99995L47.7 9.69995V8.99995L46.3 8.29995L45.8 8.69995L45.2 8.49995ZM33.5 5.49995H33.1V6.49995H32.3L31.2 6.69995L30 5.89995L29.6 5.99995L29.8 6.99995L29 7.09995L28.4 4.29995L30.7 3.89995H30.8H30.9H31H31.1H31.2H31.3L31.4 3.99995L31.5 4.09995V4.19995L31.6 4.29995L31.7 4.99995V5.09995V5.19995V5.29995V5.39995L31.6 5.49995L31.5 5.59995H31.4L31.3 5.69995H31.2H31.1H31L32.2 6.39995V3.69995H34.6H34.7H34.8H34.9H35H35.1L35.2 3.79995L35.3 3.89995L35.4 3.99995V4.09995V4.19995V4.29995V4.99995V5.09995V5.19995V5.29995L35.3 5.39995L35.2 5.49995H35.1L35 5.59995H34.9H34.8L35.4 6.09995L37 3.79995L37.7 3.89995L39 6.69995L39.7 4.09995L40.2 4.19995L41.7 6.19995L41.8 6.29995L41.9 6.19995V5.99995L42.3 4.59995L42.7 4.69995L42 7.49995L41.4 7.39995L39.9 5.29995L39.8 5.39995L39.4 6.89995L38.9 6.69995H38L37.7 6.09995L36.2 5.99995L35.8 6.59995H35.7H34.6L33.5 5.49995ZM3.99998 39L3.59998 36.1L4.29998 36L4.59998 38.1L4.99998 38L4.79998 36.7999H5.39998L5.59998 38L5.99998 37.9L5.69998 35.7999H5.89998L3.59998 34.4V33.7L6.09998 32.4H5.99998H5.89998H5.79998H5.69998L5.59998 31.6H5.89998L6.09998 30L5.69998 29.9L5.49998 31.4V31.5V31.6V31.7V31.7999V31.9L5.39998 32L5.29998 32.1H5.19998H5.09998H4.99998H4.89998H4.79998H4.49998H4.39998H4.29998H4.19998H4.09998H3.99998L3.89998 32L3.79998 31.9V31.7999L3.69998 31.7V31.6V31.5V31.4V31.3L3.89998 29.8V29.7V29.6V29.5V29.4L3.99998 29.3L4.09998 29.2L4.39998 29.1H4.49998H4.59998H4.69998H4.79998H4.89998H5.09998L5.19998 29.9H4.89998L4.69998 31.4H4.99998L5.19998 29.9V29.8V29.7V29.6V29.5L5.29998 29.4L5.39998 29.3H5.49998L5.59998 29.2H5.69998H5.79998H5.89998H5.99998H6.09998H6.49998H6.59998H6.39998H6.49998H6.59998L6.69998 29.3L6.79998 29.4L6.89998 29.5V29.6V29.7V29.8V29.9V30L6.69998 31.7V31.7999V31.9V32L6.59998 32.1L6.49998 32.2H6.59998V33.1L5.99998 33.4L5.89998 34.9L6.49998 35.2V35.7L6.79998 38.7L3.99998 39ZM64.6 30.6L64.4 29.1L64 29.2L64.2 30.7V30.8V30.9V31V31.1V31.2V31.3L64.1 31.4L64 31.5L63.9 31.6H63.8H63.7H63.6H63.5L63.1 31.7H63H62.9H62.8H62.7H62.6H62.5L62.4 31.6L62.3 31.5V31.4L62.2 31.3V31.2V31.1V31L62 29.4V29.3V29.2V29.1V29V28.9V28.8L62.1 28.7H62.4L62.5 28.6H62.6H62.7H62.8H62.9H63.1L63.4 29.3L63.1 29.4L63.4 31L63.8 30.9L63.6 29.4V29.3V29.2V29.1V29V28.9V28.8V28.7L63.7 28.6L63.8 28.5H63.9H64H64.1H64.2L64.5 28.4H64.6H64.4H64.5H64.6H64.7H64.8L64.9 28.5L65 28.6L65.1 28.7V28.8V28.9V29L65.3 30.5V30.6V30.7V30.8V30.9V31V31.1L65.2 31.2L65.1 31.3H65L64.9 31.4H64.8H64.7H64.6L64.3 30.7L64.6 30.6ZM61.2 25.4L63.9 24.7L64.5 27V27.1V27.2V27.3V27.4V27.5V27.6L64.4 27.7H64.3H64.2L63.5 27.9H63.4H63.3H63.2H63.1H63L62.9 27.7L62.8 27.6V27.5V27.4L62.1 28.8L61.8 27.6L62.5 26.3L62.4 25.9L61.4 26.2L61.2 25.4ZM63.9 26.8L63.6 25.6L63 25.7L63.3 26.9V27V27.1H63.4L63.7 27H63.8V26.9L63.9 26.8ZM60 22.4L62.6 21.3L63.7 24L63.1 24.3L62.3 22.4L62 22.6L62.5 23.7L61.9 24L61.4 22.8L61 23L61.8 25L61.2 25.3L60 22.4ZM59.1 20.8L60.8 18L61.2 18.8L60.1 20.5H62.1L62.5 21.2H59.2L59.1 20.8ZM57.9 18.9L60.3 17.3L60.8 18L58.4 19.6L57.9 18.9ZM58.2 17.2L59.5 16.3L60 16.9L57.7 18.6L57.4 18.2L57.5 15.6H57.4L56.1 16.6L55.6 16L57.9 14.3L58.2 14.8V17.2ZM55.7 11.9L54.2 13.4L55.3 14.5L56.8 13L57.4 13.6L55.9 15.1L55.8 15.2L55.7 15.3L55.6 15.4H55.4H55.3H55.2L55.1 15.3L55 15.2L54.9 15.1L53.7 13.9H53.6V13.8L53.4 13.7V13.5L53.3 13.4V13.3V13.2L53.4 13.1L53.5 13L53.6 12.9L55.1 11.4L55.7 11.9ZM46.9 7.89995L47.6 8.29995V7.49995L46.9 7.89995ZM36.6 5.29995L37.4 5.39995L37.1 4.59995L36.6 5.29995ZM34.4 4.29995H33.1V4.79995H34.4H34.5H34.6V4.39995L34.4 4.29995ZM30.6 4.59995L29.3 4.79995L29.4 5.29995L30.7 5.09995H30.8H30.9V4.99995V4.69995V4.59995H30.6ZM25.8 7.89995L25 5.19995L27.8 4.39995L28 4.99995L26 5.49995L26.1 5.89995L27.3 5.59995L27.5 6.19995L26.3 6.49995L26.4 6.99995L28.5 6.39995L28.7 7.09995L25.8 7.89995ZM24.1 6.29995L24.8 8.29995L24 8.59995L23.3 6.59995L22.2 6.99995L21.9 6.39995L25 5.29995L25.3 5.89995L24.1 6.29995ZM22.3 9.29995L21 6.69995L21.7 6.29995L23 8.79995L22.3 9.29995ZM19.1 11.1L17.6 8.69995L19.1 7.79995L19.2 7.69995H19.3H19.4V7.59995H19.5H19.6H19.7H19.8H19.9H20H20.1H20.2H20.3H20.4H20.6L20.7 7.69995H20.8L20.9 7.79995L21 7.69995L21.1 7.79995L21.2 7.89995L21.3 7.99995L21.4 8.09995L21.5 8.19995V8.29995V8.39995L21.4 8.49995V8.59995V8.69995V8.79995V8.89995V8.99995V9.09995V9.19995V9.29995V9.39995V9.49995V9.59995L21.3 9.69995H21.2L21.1 9.79995L21 9.89995L20.9 9.99995L20.8 10.1L20.7 10.2H20.6L20.5 10.3L20.4 10.4L19.1 11.1ZM19.4 10.1L20 9.69995L20.1 9.59995L20.2 9.49995H20.4V9.39995V9.29995L20.5 9.19995L20.6 9.09995V8.99995V8.89995V8.79995V8.69995V8.59995V8.49995L20.5 8.39995H20.4L20.3 8.29995L20.2 8.19995L20.1 8.09995H20H19.9H19.8H19.7L19.6 8.19995H19.5L19.4 8.29995L18.5 8.79995L19.4 10.1ZM16.6 13L14.9 10.7L17.2 8.89995L17.6 9.39995L16 10.7L16.2 11L17.2 10.3L17.6 10.8L16.6 11.5L16.9 11.9L18.4 10.7L18.8 11.3L16.6 13ZM12.1 13.2L14 13.5L13.8 11.6L14.3 11.2L16.3 13.3L15.7 13.8L14.6 12.6L14.8 14.2L14.6 14.4L13 14.1L14.1 15.3L13.6 15.8L11.7 13.7L12.1 13.2ZM10.6 17.7L9.19998 16.9L9.59998 16.3L12 17.8L11.7 18.3L9.29998 19.1V19.2L10.6 20L10.2 20.6L10.1 20.5L9.59998 21.5L8.39998 22L8.19998 22.4L9.09998 22.8L8.69998 23.5L6.09998 22.2L7.09998 20.1L7.19998 20L7.39998 19.9L7.49998 19.8L7.59998 19.7H7.69998H7.79998H7.89998H7.99998L8.59998 20H8.69998L8.79998 20.1L8.89998 20.2V20.3V20.4V20.5V20.7L8.79998 20.8V20.9V21L10.1 20.4L7.79998 19L8.09998 18.5L10.6 17.7ZM7.69998 20.7L7.09998 21.9L7.59998 22.1L8.09998 20.9L8.19998 20.8V20.7H8.09998L7.79998 20.6H7.69998V20.7ZM7.69998 26.5L4.99998 25.6L5.89998 22.8L6.49998 23L5.89998 25L6.29998 25.1L6.69998 23.9L7.29998 24.1L6.89998 25.3L7.29998 25.4L7.99998 23.4L8.59998 23.7L7.69998 26.5ZM5.29998 27.1L7.39998 27.5L7.19998 28.3L5.09998 27.8L4.79998 29L4.09998 28.8L4.89998 25.7L5.59998 25.9L5.29998 27.1ZM5.29998 34.5V33.7L4.49998 34.1L5.29998 34.5Z" fill="white"/>
</svg>
